<?xml version="1.0" encoding="utf-8"?>
<!-- Generator: Adobe Illustrator 25.3.1, SVG Export Plug-In . SVG Version: 6.00 Build 0)  -->
<svg version="1.1" id="Capa_1" xmlns="http://www.w3.org/2000/svg" xmlns:xlink="http://www.w3.org/1999/xlink" x="0px" y="0px"
	 viewBox="0 0 67.9 67.9" style="enable-background:new 0 0 67.9 67.9;" xml:space="preserve">
<style type="text/css">
	.st0{fill:#005791;}
	.st1{fill:#FFFFFF;}
	.st2{fill:#FDC040;}
	.st3{fill:#F58528;}
	.st4{fill:#FAAF40;}
</style>
<circle class="st0" cx="34" cy="34" r="34"/>
<g>
	<path class="st1" d="M61,46.9h-6.6v-0.5c0-3.3,0-6.7,0-10c0-0.4,0-0.7-0.1-1.1c-0.1-1-1.1-1.5-2.1-1.2c-0.9,0.3-1.5,1.1-1.5,2.2
		c0,2.8,0,5.6,0,8.3c0,0.6,0,1.2,0,1.8c0,0.1,0,0.3,0,0.5H44V23.7h6.6v7.9c0.4-0.4,0.8-0.8,1.2-1.1c1.4-1.1,3-1.4,4.7-1.2
		c0.4,0,0.8,0.1,1.2,0.2c1.9,0.5,2.8,1.9,3.1,3.7c0.1,0.7,0.2,1.3,0.2,2c0,3.8,0,7.5,0,11.3C61,46.7,61,46.8,61,46.9"/>
	<path class="st1" d="M32.9,18.2c0-0.1,0-0.3,0-0.4c-0.1-0.5-0.5-0.9-1.1-0.9c-0.8,0-1.3,0.7-1.3,1.7c0,0.9,0.4,1.6,1.3,1.6
		c0.5,0,1-0.3,1.1-0.8c0-0.1,0.1-0.3,0.1-0.4V18.2z M33.8,16.4c0,0.3,0,0.7,0,1.2v2.6c0,1-0.2,1.7-0.6,2.1c-0.4,0.4-1.1,0.5-1.6,0.5
		c-0.5,0-1.1-0.1-1.5-0.4l0.2-0.6c0.3,0.2,0.8,0.4,1.3,0.4c0.8,0,1.4-0.4,1.4-1.6v-0.5h0c-0.2,0.4-0.7,0.8-1.4,0.8
		c-1.1,0-1.9-1-1.9-2.2c0-1.5,1-2.4,2-2.4c0.8,0,1.2,0.4,1.4,0.8h0l0-0.7H33.8z"/>
	<path class="st1" d="M34.6,17.8c0-0.5,0-1,0-1.4h0.7l0,0.9h0c0.2-0.6,0.7-1,1.2-1c0.1,0,0.2,0,0.2,0v0.8c-0.1,0-0.2,0-0.3,0
		c-0.6,0-1,0.4-1.1,1.1c0,0.1,0,0.2,0,0.4v2.4h-0.8V17.8z"/>
	<path class="st1" d="M40.9,19.7c0,0.5,0,0.9,0,1.2h-0.7l0-0.7h0c-0.2,0.4-0.7,0.8-1.5,0.8c-0.7,0-1.5-0.4-1.5-2v-2.6h0.8v2.5
		c0,0.9,0.3,1.4,1,1.4c0.5,0,0.9-0.4,1.1-0.7c0-0.1,0.1-0.3,0.1-0.4v-2.8h0.8V19.7z"/>
	<path class="st1" d="M42.6,19c0,0.1,0,0.2,0,0.3c0.1,0.6,0.6,1,1.2,1c0.9,0,1.4-0.7,1.4-1.7c0-0.9-0.5-1.7-1.3-1.7
		c-0.6,0-1.1,0.4-1.2,1c0,0.1-0.1,0.2-0.1,0.3V19z M41.8,17.8c0-0.6,0-1,0-1.5h0.7l0,0.8h0c0.3-0.6,0.9-0.9,1.6-0.9
		c1.1,0,1.9,0.9,1.9,2.3c0,1.6-1,2.4-2,2.4c-0.6,0-1.1-0.3-1.4-0.7h0v2.5h-0.8V17.8z"/>
	<path class="st1" d="M47,18.6c0,1,0.6,1.7,1.4,1.7c0.8,0,1.4-0.7,1.4-1.8c0-0.8-0.4-1.7-1.3-1.7C47.5,16.9,47,17.8,47,18.6
		 M50.6,18.6c0,1.7-1.1,2.4-2.2,2.4c-1.2,0-2.1-0.9-2.1-2.3c0-1.5,1-2.4,2.2-2.4C49.7,16.3,50.6,17.2,50.6,18.6"/>
	<path class="st1" d="M33.9,36.4c-1.6,0-2.8-1.3-2.8-2.8c0-1.6,1.3-2.8,2.8-2.8c1.6,0,2.8,1.3,2.8,2.8
		C36.8,35.1,35.5,36.4,33.9,36.4 M43.3,38.2c0-0.2,0-0.3,0-0.5c0-5.2-4.2-9.4-9.4-9.4c-5.2,0-9.4,4.2-9.4,9.4c0,5.2,4.2,9.4,9.4,9.4
		c4.2,0,7.8-2.8,9-6.6h-5.7c-0.8,1-2,1.6-3.3,1.6c-2.2,0-4.1-1.7-4.3-3.8h8.6c0,0,0,0,0,0H43.3z"/>
	<path class="st1" d="M16.9,40.4c0,0.6-0.3,1.2-0.5,1.7c-0.4,0.8-1.1,1-2,0.9c-0.8-0.1-1.2-0.6-1.4-1.3c-0.1-0.6-0.2-1.1-0.2-1.7
		c0-0.7,0-1.3,0-2c0-0.8,0-1.7,0-2.5c0-1,0.7-1.9,1.6-2c0.9-0.2,1.8,0.3,2.2,1.3c0.2,0.6,0.4,1.2,0.4,1.8C17,37.8,17,39.1,16.9,40.4
		 M23.5,35c-0.3-1.4-0.8-2.8-1.8-3.9c-1.4-1.6-3.2-2.1-5.2-1.9c-1.6,0.1-2.8,0.9-3.5,2.2c0,0-0.1,0.1-0.2,0.2v-8h0v-1.8
		c-1.6-0.2-4.8-0.2-6.6,1.5c-0.1,0.1-0.1,0.2-0.1,0.2v0h0v23.3h6v-1.1c0.5,0.4,1,0.7,1.6,0.9c1.1,0.4,2.2,0.5,3.4,0.4
		c2.8-0.2,4.7-1.6,5.8-4.2C24,40.4,24.1,37.7,23.5,35"/>
	<path class="st2" d="M16.1,17.4h9.4l-3.8-3.6v2.1c-0.2,0-0.4,0-0.5,0c-2.1,0.1-4.2,0-6.3,0.2c-2.1,0.2-4.2,0.9-6,2.1
		c-1.2,0.8-2.2,1.9-2.7,3.3c0,0.1,0,0.1-0.1,0.1c0,0.2-0.1,0.3-0.1,0.5C8.7,17.3,16.1,17.4,16.1,17.4"/>
	<path class="st3" d="M6,22.3c1.8-1.6,5-1.6,6.3-1.5l0,0H22v0.1h0v1.9l3.4-3.4h-9.3C8.3,19.5,6.4,21.6,6,22.3"/>
	<path class="st4" d="M25.5,17.4h-9.4c0,0-7.4-0.1-10.1,4.7c0,0.1,0,0.2,0,0.3c0,0,0,0,0,0c0.4-0.7,2.3-2.8,10.1-3h9.3l1.1-1.1
		L25.5,17.4z"/>
</g>
<polygon class="st2" points="25,18.3 22,17.4 25.5,17.4 26.5,18.3 "/>
<polygon class="st3" points="25,18.3 21.9,19.4 25.4,19.4 26.5,18.3 "/>
</svg>
